<?xml version="1.0" encoding="UTF-8" standalone="no"?><!-- Generator: Gravit.io --><svg xmlns="http://www.w3.org/2000/svg" xmlns:xlink="http://www.w3.org/1999/xlink" style="isolation:isolate" viewBox="0 0 73 79" width="73pt" height="79pt"><defs><clipPath id="_clipPath_wTkcOBvWHwjkRHMtj6PSs7wZciNFTDsX"><rect width="73" height="79"/></clipPath></defs><g clip-path="url(#_clipPath_wTkcOBvWHwjkRHMtj6PSs7wZciNFTDsX)"><path d=" M 50.213 36.681 C 42.144 36.606 35.794 30.021 35.963 21.903 C 36.124 14.184 42.791 7.64 50.42 7.713 C 57.966 7.785 64.72 14.532 64.839 22.116 C 64.963 30.013 58.193 36.755 50.213 36.681 L 50.213 36.681 L 50.213 36.681 Z  M 0.075 39.489 C 0.075 28.336 0.221 17.18 0.005 6.03 C -0.085 1.42 1.68 -0.059 6.186 0.002 C 20.832 0.203 35.483 0.019 50.132 0.098 C 59.716 0.15 66.865 4.586 70.73 13.277 C 74.493 21.738 73.256 29.945 67.101 37.02 C 65.504 38.855 65.047 39.701 66.906 41.759 C 73.041 48.555 74.415 56.581 71.027 64.993 C 67.549 73.625 60.678 78.546 51.451 78.992 C 40.323 79.531 29.155 79.242 18.005 79.299 C 14.176 79.319 10.339 79.141 6.521 79.343 C 1.861 79.59 -0.095 77.785 0.004 72.947 C 0.23 61.798 0.075 50.642 0.075 39.489 L 0.075 39.489 L 0.075 39.489 Z  M 21.91 71.756 C 13.906 71.852 7.112 65.231 7.183 57.405 C 7.251 49.794 13.918 43.223 21.61 43.185 C 29.616 43.146 35.961 49.224 36.13 57.093 C 36.305 65.313 30.152 71.657 21.91 71.756 Z " fill-rule="evenodd" fill="rgb(115,129,143)"/></g></svg>