<?xml version="1.0" encoding="UTF-8" standalone="no"?>
<svg
   xmlns:dc="http://purl.org/dc/elements/1.1/"
   xmlns:cc="http://creativecommons.org/ns#"
   xmlns:rdf="http://www.w3.org/1999/02/22-rdf-syntax-ns#"
   xmlns:svg="http://www.w3.org/2000/svg"
   xmlns="http://www.w3.org/2000/svg"
   xmlns:sodipodi="http://sodipodi.sourceforge.net/DTD/sodipodi-0.dtd"
   xmlns:inkscape="http://www.inkscape.org/namespaces/inkscape"
   id="ejg6mxhqd3m1"
   viewBox="0 0 197 199"
   shape-rendering="geometricPrecision"
   text-rendering="geometricPrecision"
   version="1.1"
   sodipodi:docname="loadingS (3).svg"
   width="197"
   height="199"
   inkscape:version="1.0.2 (e86c870879, 2021-01-15, custom)">
  <metadata
     id="metadata53">
    <rdf:RDF>
      <cc:Work
         rdf:about="">
        <dc:format>image/svg+xml</dc:format>
        <dc:type
           rdf:resource="http://purl.org/dc/dcmitype/StillImage" />
        <dc:title></dc:title>
      </cc:Work>
    </rdf:RDF>
  </metadata>
  <defs
     id="defs51" />
  <sodipodi:namedview
     pagecolor="#ffffff"
     bordercolor="#666666"
     borderopacity="1"
     objecttolerance="10"
     gridtolerance="10"
     guidetolerance="10"
     inkscape:pageopacity="0"
     inkscape:pageshadow="2"
     inkscape:window-width="1920"
     inkscape:window-height="1017"
     id="namedview49"
     showgrid="false"
     inkscape:zoom="7.2340425"
     inkscape:cx="86.205451"
     inkscape:cy="138.09806"
     inkscape:window-x="-8"
     inkscape:window-y="-8"
     inkscape:window-maximized="1"
     inkscape:current-layer="ejg6mxhqd3m1" />
  <style
     id="style2"><![CDATA[#ejg6mxhqd3m9 {animation: ejg6mxhqd3m9_c_o 3000ms linear infinite normal backwards}@keyframes ejg6mxhqd3m9_c_o { 0% {opacity: 1} 51% {opacity: 1} 63.333333% {opacity: 0.420000} 73.333333% {opacity: 1} 100% {opacity: 1} }#ejg6mxhqd3m11 {animation: ejg6mxhqd3m11_c_o 3000ms linear infinite normal backwards}@keyframes ejg6mxhqd3m11_c_o { 0% {opacity: 1} 14.333333% {opacity: 1} 33.333333% {opacity: 0.420000} 46.666667% {opacity: 1} 100% {opacity: 1} }#ejg6mxhqd3m13 {animation: ejg6mxhqd3m13_c_o 3000ms linear infinite normal backwards}@keyframes ejg6mxhqd3m13_c_o { 0% {opacity: 1} 47.666667% {opacity: 1} 63.333333% {opacity: 0.360000} 76.666667% {opacity: 1} 100% {opacity: 1} }#ejg6mxhqd3m15 {animation: ejg6mxhqd3m15_c_o 3000ms linear infinite normal backwards}@keyframes ejg6mxhqd3m15_c_o { 0% {opacity: 1} 34.333333% {opacity: 1} 53.333333% {opacity: 0.220000} 63.333333% {opacity: 1} 100% {opacity: 1} }#ejg6mxhqd3m17 {animation: ejg6mxhqd3m17_c_o 3000ms linear infinite normal backwards}@keyframes ejg6mxhqd3m17_c_o { 0% {opacity: 1} 44.333333% {opacity: 1} 50% {opacity: 0.440000} 56.666667% {opacity: 1} 100% {opacity: 1} }#ejg6mxhqd3m19 {animation: ejg6mxhqd3m19_c_o 3000ms linear infinite normal backwards}@keyframes ejg6mxhqd3m19_c_o { 0% {opacity: 1} 31% {opacity: 1} 40% {opacity: 0.440000} 46.666667% {opacity: 1} 100% {opacity: 1} }#ejg6mxhqd3m21 {animation: ejg6mxhqd3m21_c_o 3000ms linear infinite normal backwards}@keyframes ejg6mxhqd3m21_c_o { 0% {opacity: 1} 17.666667% {opacity: 1} 26.666667% {opacity: 0.480000} 36.666667% {opacity: 1} 100% {opacity: 1} }#ejg6mxhqd3m23 {animation: ejg6mxhqd3m23_c_o 3000ms linear infinite normal backwards}@keyframes ejg6mxhqd3m23_c_o { 0% {opacity: 1} 31% {opacity: 1} 33.333333% {opacity: 0.560000} 40% {opacity: 1} 100% {opacity: 1} }#ejg6mxhqd3m25 {animation: ejg6mxhqd3m25_c_o 3000ms linear infinite normal backwards}@keyframes ejg6mxhqd3m25_c_o { 0% {opacity: 1} 41% {opacity: 1} 56.666667% {opacity: 0.680000} 70% {opacity: 1} 100% {opacity: 1} }#ejg6mxhqd3m27 {animation: ejg6mxhqd3m27_c_o 3000ms linear infinite normal backwards}@keyframes ejg6mxhqd3m27_c_o { 0% {opacity: 1} 21% {opacity: 1} 40% {opacity: 0.360000} 53.333333% {opacity: 1} 100% {opacity: 1} }#ejg6mxhqd3m29 {animation: ejg6mxhqd3m29_c_o 3000ms linear infinite normal backwards}@keyframes ejg6mxhqd3m29_c_o { 0% {opacity: 1} 31% {opacity: 1} 33.333333% {opacity: 0.440000} 40% {opacity: 1} 100% {opacity: 1} }#ejg6mxhqd3m31 {animation: ejg6mxhqd3m31_c_o 3000ms linear infinite normal backwards}@keyframes ejg6mxhqd3m31_c_o { 0% {opacity: 1} 17.666667% {opacity: 1} 23.333333% {opacity: 0.400000} 36.666667% {opacity: 1} 100% {opacity: 1} }#ejg6mxhqd3m33 {animation: ejg6mxhqd3m33_c_o 3000ms linear infinite normal backwards}@keyframes ejg6mxhqd3m33_c_o { 0% {opacity: 1} 14.333333% {opacity: 1} 26.666667% {opacity: 0.280000} 33.333333% {opacity: 1} 100% {opacity: 1} }#ejg6mxhqd3m35 {animation: ejg6mxhqd3m35_c_o 3000ms linear infinite normal backwards}@keyframes ejg6mxhqd3m35_c_o { 0% {opacity: 1} 11% {opacity: 1} 20% {opacity: 0.200000} 30% {opacity: 1} 100% {opacity: 1} }#ejg6mxhqd3m37 {animation: ejg6mxhqd3m37_c_o 3000ms linear infinite normal backwards}@keyframes ejg6mxhqd3m37_c_o { 0% {opacity: 1} 11% {opacity: 1} 16.666667% {opacity: 0.260000} 26.666667% {opacity: 1} 100% {opacity: 1} }#ejg6mxhqd3m39 {animation: ejg6mxhqd3m39_c_o 3000ms linear infinite normal backwards}@keyframes ejg6mxhqd3m39_c_o { 0% {opacity: 1} 14.333333% {opacity: 1} 36.666667% {opacity: 0.500000} 53.333333% {opacity: 1} 100% {opacity: 1} }#ejg6mxhqd3m41 {animation: ejg6mxhqd3m41_c_o 3000ms linear infinite normal backwards}@keyframes ejg6mxhqd3m41_c_o { 0% {opacity: 1} 44.333333% {opacity: 1} 60% {opacity: 0.360000} 76.666667% {opacity: 1} 100% {opacity: 1} }#ejg6mxhqd3m43 {animation: ejg6mxhqd3m43_c_o 3000ms linear infinite normal backwards}@keyframes ejg6mxhqd3m43_c_o { 0% {opacity: 1} 6.666667% {opacity: 0.360000} 20% {opacity: 1} 100% {opacity: 1} }#ejg6mxhqd3m45 {animation: ejg6mxhqd3m45_c_o 3000ms linear infinite normal backwards}@keyframes ejg6mxhqd3m45_c_o { 0% {opacity: 1} 3.333333% {opacity: 0.600000} 16.666667% {opacity: 1} 100% {opacity: 1} }]]></style>
  <path
     id="ejg6mxhqd3m3"
     d="m 68.375,21.994141 c -3.564902,-0.186431 -6.313672,1.960156 -8.169922,6.394531 -1.12,2.67 -2.190859,5.360234 -3.380859,7.990234 -4.83,10.73 -12.169297,18.890078 -23.779297,22.330078 -11.53,3.41 -17.170469,8.488282 -9.980469,22.988282 5.52,11.15 4.791094,22.371564 -0.878906,33.351564 -1.18,2.29 -2.33,4.57914 -3.5,6.86914 -3.61,7.06 -1.490235,12.53 6.009765,15.25 4.530001,1.64 9.150157,3.04047 13.660157,4.73047 8.02,3.01 13.549218,8.40992 15.699219,16.91992 0.51,2.02 1.170234,3.99977 1.740234,6.00976 3.79,13.45001 7.179375,18.01071 21.609375,9.47071 11.79,-6.99 23.370153,-7.00039 34.910153,0.59961 2.41,1.59 5.09938,2.73015 7.60938,4.16015 1.45,0.82 2.93179,1.28946 4.59179,1.18946 4.04,0.03 6.53954,-1.62008 8.26954,-6.08008 2.61,-6.73 4.99898,-13.54984 7.45898,-20.33985 1.96,-5.41 5.73031,-8.66914 11.32031,-10.11914 6.06,-1.57 12.12078,-3.21117 18.05078,-5.20117 5.8,-1.95 7.48954,-6.17047 5.01954,-11.73047 -1.97,-4.39 -3.93102,-8.82 -6.29102,-13 -4.55,-8.05 -4.02977,-15.959684 -0.01,-23.929684 2.1,-4.15 4.39164,-8.22039 6.43164,-12.40039 2.78,-5.7 0.89868,-10.399454 -5.11132,-12.689454 -3.9,-1.49 -7.83938,-2.939296 -11.85938,-4.029296 -8.91,-2.42 -14.11101,-8.470078 -17.04101,-16.830078 -1.75,-5 -3.15836,-10.130547 -5.06836,-15.060547 -2.26,-5.84 -6.7111,-7.670625 -12.3711,-5.140625 -5.86,2.62 -11.60914,5.501796 -17.36914,8.341796 -6.239997,3.07 -12.260076,3.118438 -18.330076,-0.601562 -4.51,-2.76 -9.220859,-5.220234 -13.880859,-7.740234 -1.95,-1.053125 -3.738965,-1.618384 -5.359375,-1.703125 z"
     sodipodi:nodetypes="scccccccccccccccsccccccccccccccs"
     style="fill:#ffffff" />
  <g
     id="ejg6mxhqd3m5"
     transform="translate(-138.23529,-133.81176)">
    <g
       id="ejg6mxhqd3m6" />
  </g>
  <g
     id="ejg6mxhqd3m8"
     transform="translate(-138.23529,-133.81176)">
    <path
       id="ejg6mxhqd3m9"
       d="m 196.28,188.4 c 1.99,0.74 3.72,0.12 5.19,-1.43 2.34,-2.48 3.26,-5.43 3.21,-8.8 -0.3,-2.05 -0.49,-4.13 -0.93,-6.15 -0.36,-1.64 -1.46,-2.84 -3.04,-1.39 -3.97,3.64 -7.15,7.81 -7.08,13.58 0.02,1.87 0.8,3.49 2.65,4.19 z"
       fill="#363a8c"
       stroke="none"
       stroke-width="1" />
  </g>
  <g
     id="ejg6mxhqd3m10"
     transform="translate(-138.23529,-133.81176)">
    <path
       id="ejg6mxhqd3m11"
       d="m 278.87,212.85 c -5.21,0.41 -9.7,0.71 -14.17,1.12 -12.33,1.12 -24.58,2.8 -36.7,5.34 -2.66,0.56 -5.68,1.51 -5.92,4.79 -0.24,3.15 2.71,4.1 5.02,5.14 7.9,3.57 15.87,6.99 23.78,10.54 6.11,2.75 12.41,4.19 18.55,0.8 6.35,-3.5 12.02,-8.04 16.04,-14.28 1.97,-3.06 3.5,-6.49 1.64,-9.96 -1.84,-3.42 -5.59,-3.32 -8.24,-3.49 z"
       fill="#363a8c"
       stroke="none"
       stroke-width="1" />
  </g>
  <g
     id="ejg6mxhqd3m12"
     transform="translate(-138.23529,-133.81176)">
    <path
       id="ejg6mxhqd3m13"
       d="m 175.34,243.5 c 0.19,-3.44 -2.84,-5.63 -5.7,-3.83 -3.34,2.11 -5.72,5.12 -5.96,8.5 -0.11,3.59 1.24,4.63 3.89,4.16 3.76,-0.68 7.56,-5 7.77,-8.83 z"
       fill="#363a8c"
       stroke="none"
       stroke-width="1" />
  </g>
  <g
     id="ejg6mxhqd3m14"
     transform="translate(-138.23529,-133.81176)">
    <path
       id="ejg6mxhqd3m15"
       d="m 190.77,261.67 c -6.03,0.69 -12.03,1.51 -17.95,2.89 -1.6,0.37 -3.35,0.54 -3.74,2.42 -0.47,2.32 1.54,2.82 3.08,3.62 7.13,3.72 14.99,5.49 22.44,8.36 3.08,1.19 5.35,-0.21 5.91,-3.62 0.26,-1.57 0.23,-3.18 0.25,-3.54 -0.04,-9.64 -1.69,-11.08 -9.99,-10.13 z"
       fill="#363a8c"
       stroke="none"
       stroke-width="1" />
  </g>
  <g
     id="ejg6mxhqd3m16"
     transform="translate(-138.23529,-133.81176)">
    <path
       id="ejg6mxhqd3m17"
       d="m 195.55,283.49 c -3.43,0.83 -1.15,3.57 -0.78,5.54 0.14,0.78 0.39,1.57 0.75,2.27 0.77,1.46 0.8,4.04 3.06,3.67 2.54,-0.41 1.58,-3.06 2.07,-4.75 -0.09,-0.84 -0.07,-1.65 -0.27,-2.42 -0.64,-2.52 -2.22,-4.95 -4.83,-4.31 z"
       fill="#363a8c"
       stroke="none"
       stroke-width="1" />
  </g>
  <g
     id="ejg6mxhqd3m18"
     transform="translate(-138.23529,-133.81176)">
    <path
       id="ejg6mxhqd3m19"
       d="m 244.87,174.36 c 1.8,0.34 3.64,0.18 4.95,-1.13 2.42,-2.4 4.65,-5.01 7.63,-8.27 -5.7,0.15 -8.99,3.75 -13.23,4.72 -1.18,0.27 -2.67,0.81 -2.27,2.51 0.34,1.37 1.62,1.92 2.92,2.17 z"
       fill="#363a8c"
       stroke="none"
       stroke-width="1" />
  </g>
  <g
     id="ejg6mxhqd3m20"
     transform="translate(-138.23529,-133.81176)">
    <path
       id="ejg6mxhqd3m21"
       d="m 298.31,226.84 c 1.88,0.51 2.87,-1.09 3.73,-2.42 2.23,-3.45 2.92,-7.41 3.53,-11.36 0.26,-1.7 -0.39,-3.28 -2.36,-1.87 -3.9,2.79 -6.32,6.68 -7.39,11.1 0.18,2.12 0.47,4.01 2.49,4.55 z"
       fill="#363a8c"
       stroke="none"
       stroke-width="1" />
  </g>
  <g
     id="ejg6mxhqd3m22"
     transform="translate(-138.23529,-133.81176)">
    <path
       id="ejg6mxhqd3m23"
       d="m 254.12,179.52 c 2.82,1.26 5.71,3.7 8.89,2.58 3.21,-1.13 1.95,-4.6 2.29,-7.16 0.04,-0.31 0.01,-0.64 0,-0.96 0.08,-0.79 0.18,-1.58 0.24,-2.37 0.15,-1.75 0.51,-3.68 -1.62,-4.5 -1.79,-0.69 -3.01,0.61 -4.12,1.75 -2,2.05 -3.97,4.13 -5.88,6.26 -1.32,1.5 -1.9,3.47 0.2,4.4 z"
       fill="#363a8c"
       stroke="none"
       stroke-width="1" />
  </g>
  <g
     id="ejg6mxhqd3m24"
     transform="translate(-138.23529,-133.81176)">
    <path
       id="ejg6mxhqd3m25"
       d="m 192.98,235.13 c -8.05,5.18 -14.83,11.73 -20.31,19.62 -2.11,3.04 -1.13,4.4 2.27,4.56 4.35,0.21 8.66,-0.14 12.94,-0.97 10.74,-2.09 13.52,-5.39 13.58,-16.29 0,-0.8 0.03,-1.61 -0.01,-2.41 -0.27,-6.72 -2.8,-8.16 -8.47,-4.51 z"
       fill="#363a8c"
       stroke="none"
       stroke-width="1" />
  </g>
  <g
     id="ejg6mxhqd3m26"
     transform="translate(-138.23529,-133.81176)">
    <path
       id="ejg6mxhqd3m27"
       d="m 222.15,216.01 c 20.81,-1.7 41.27,-6.05 61.97,-8.58 2.7,-0.33 5.4,-0.84 8.02,-1.54 2.03,-0.54 4.1,-1.48 4.25,-3.99 0.15,-2.51 -1.72,-3.62 -3.73,-4.45 -1.04,-0.43 -2.1,-0.79 -3.17,-1.15 -7.45,-2.49 -15.18,-4.35 -22.29,-7.57 -15.13,-6.86 -31.05,-11.99 -45.16,-21.17 -7.69,-5 -14.56,-0.63 -13.68,8.42 0.72,7.42 -0.56,14.73 -0.12,21.24 -0.12,2.29 -0.22,3.74 -0.28,5.18 -0.5,11.99 2.06,14.6 14.19,13.61 z"
       fill="#363a8c"
       stroke="none"
       stroke-width="1" />
  </g>
  <g
     id="ejg6mxhqd3m28"
     transform="translate(-138.23529,-133.81176)">
    <path
       id="ejg6mxhqd3m29"
       d="m 274.03,186.74 c 1.64,0.17 2.43,-1.05 2.27,-2.45 -0.58,-5.06 -2.8,-9.53 -5.12,-14.04 -2.11,4.2 -2.28,8.43 -1.56,12.69 0.39,2.3 2.14,3.56 4.41,3.8 z"
       fill="#363a8c"
       stroke="none"
       stroke-width="1" />
  </g>
  <g
     id="ejg6mxhqd3m30"
     transform="translate(-138.23529,-133.81176)">
    <path
       id="ejg6mxhqd3m31"
       d="m 295.97,233.25 c -1.02,-2.25 -1.96,-5.35 -5.18,-4.51 -3.32,0.87 -4.7,3.97 -5.37,6.47 -0.17,2.95 1.12,4.51 2.6,6.02 4.13,4.18 8.2,8.41 12.33,12.59 0.95,0.97 1.85,2.76 3.45,1.82 1.78,-1.04 0.77,-2.86 0.18,-4.24 -2.6,-6.08 -5.28,-12.13 -8.01,-18.15 z"
       fill="#363a8c"
       stroke="none"
       stroke-width="1" />
  </g>
  <g
     id="ejg6mxhqd3m32"
     transform="translate(-138.23529,-133.81176)">
    <path
       id="ejg6mxhqd3m33"
       d="m 291.06,249.83 c -11.33,-11.59 -15.19,-11.33 -25.38,1.7 -3.11,3.98 -2.4,6.9 2.6,7.99 8.43,1.83 16.98,3.08 24.18,4.35 3.41,-0.18 5.74,0.24 6.9,-2.02 1.2,-2.35 -0.58,-3.92 -1.97,-5.43 -2.06,-2.26 -4.2,-4.42 -6.33,-6.59 z"
       fill="#363a8c"
       stroke="none"
       stroke-width="1" />
  </g>
  <g
     id="ejg6mxhqd3m34"
     transform="translate(-138.23529,-133.81176)">
    <path
       id="ejg6mxhqd3m35"
       d="m 286.34,267.43 c -9.75,-5.62 -20.27,-6.9 -30.52,-2.5 -8.01,3.43 -14.23,9.82 -19.54,16.82 -1.33,1.76 -3.04,3.67 -1.84,6.1 1.25,2.55 3.9,2.49 6.91,2.82 1.94,-0.35 4.48,-0.73 6.98,-1.29 10.87,-2.42 20.74,-7.65 31.24,-11.13 2.7,-0.89 5.22,-2.5 7.33,-4.54 2.42,-2.33 2.34,-4.61 -0.56,-6.28 z"
       fill="#363a8c"
       stroke="none"
       stroke-width="1" />
  </g>
  <g
     id="ejg6mxhqd3m36"
     transform="translate(-138.23529,-133.81176)">
    <path
       id="ejg6mxhqd3m37"
       d="m 227.48,291.23 c -4.69,2.13 -9.28,4.51 -12.53,8.67 -1.29,1.64 -1.29,3.33 1.68,3.83 3.17,-1.4 6.54,-2.89 9.9,-4.37 1.82,-0.8 3.28,-1.99 4.2,-3.78 0.63,-1.22 0.8,-2.46 -0.17,-3.59 -0.82,-0.95 -2.03,-1.23 -3.08,-0.76 z"
       fill="#363a8c"
       stroke="none"
       stroke-width="1" />
  </g>
  <g
     id="ejg6mxhqd3m38"
     transform="translate(-138.23529,-133.81176)">
    <path
       id="ejg6mxhqd3m39"
       d="m 251.07,258.96 c 5.51,-8.3 4.24,-13 -4.67,-17.1 -9.78,-4.5 -19.66,-8.77 -29.5,-13.12 -7.53,-3.33 -11.22,-1 -11.83,7.2 -0.58,7.87 0.52,15.8 -0.22,23.58 -1.07,11.22 -0.27,22.47 -1.45,33.78 0.29,2.68 -0.43,6.15 2.93,7.42 3.12,1.17 4.9,-1.72 6.85,-3.52 6.12,-5.66 12.23,-11.34 18.24,-17.12 6.93,-6.68 14.27,-13.01 19.65,-21.12 z"
       fill="#363a8c"
       stroke="none"
       stroke-width="1" />
  </g>
  <g
     id="ejg6mxhqd3m40"
     transform="translate(-138.23529,-133.81176)">
    <path
       id="ejg6mxhqd3m41"
       d="m 189.52,196.97 c -0.96,-0.02 -1.92,-0.13 -2.05,-0.14 -6.64,-0.15 -12.31,1.09 -17.96,2.12 -6.08,1.11 -7.54,4.15 -5.59,10.05 0.45,1.37 0.72,2.79 1.1,4.18 1.87,6.82 4.17,13.5 8,19.49 3.63,5.68 7.32,6.55 12.89,2.83 7.68,-5.13 13.91,-11.92 15.78,-21.04 2.59,-12.64 1.56,-17.16 -12.17,-17.49 z"
       fill="#363a8c"
       stroke="none"
       stroke-width="1" />
  </g>
  <g
     id="ejg6mxhqd3m42"
     transform="translate(-138.23529,-133.81176)">
    <path
       id="ejg6mxhqd3m43"
       d="m 269.62,285.54 c -2.73,1.06 -3.95,3.12 -4.01,6.3 0.78,2.35 0.39,6.36 3.62,6.86 2.98,0.46 3.17,-3.41 4.16,-5.64 0.52,-1.16 0.82,-2.45 1.01,-3.71 0.53,-3.7 -1.32,-5.15 -4.78,-3.81 z"
       fill="#363a8c"
       stroke="none"
       stroke-width="1" />
  </g>
  <g
     id="ejg6mxhqd3m44"
     transform="translate(-138.23529,-133.81176)">
    <path
       id="ejg6mxhqd3m45"
       d="m 258,289.84 c -4.69,1.03 -9.45,2.04 -13.54,4.75 -3.76,2.48 -3.74,4.91 0.22,7.26 2.88,1.71 6.02,2.99 9.07,4.42 6.99,3.3 9.3,1.82 9.19,-5.15 -0.26,-3.13 -0.39,-5.53 -0.66,-7.91 -0.3,-2.5 -1.81,-3.91 -4.28,-3.37 z"
       fill="#363a8c"
       stroke="none"
       stroke-width="1" />
  </g>
  <rect
     style="fill:#ffffff"
     id="rect59"
     width="237.21176"
     height="207.90588"
     x="345.58823"
     y="14.929412" />
</svg>
