<svg id="Calque_1" data-name="Calque 1" xmlns="http://www.w3.org/2000/svg" xmlns:xlink="http://www.w3.org/1999/xlink" viewBox="0 0 173.99 173.17"><defs><style>.cls-1{fill:url(#linear-gradient);}</style><linearGradient id="linear-gradient" x1="5.69" y1="89.05" x2="164.72" y2="89.05" gradientUnits="userSpaceOnUse"><stop offset="0" stop-color="#66b331"/><stop offset="0" stop-color="#41bfef"/><stop offset="1" stop-color="#273c8c"/></linearGradient></defs><title>icon</title><path class="cls-1" d="M157,101.72c-4.55-8.05-4-16,0-23.93,2.1-4.16,4.38-8.22,6.43-12.4,2.78-5.7.9-10.4-5.11-12.69-3.9-1.49-7.84-2.93-11.86-4-8.9-2.42-14.11-8.47-17-16.83-1.75-5-3.16-10.12-5.07-15.06-2.26-5.85-6.71-7.67-12.37-5.14-5.86,2.62-11.61,5.5-17.37,8.34-6.24,3.07-12.26,3.12-18.33-.6-4.51-2.76-9.22-5.22-13.88-7.74C56.2,8.26,51.62,9.87,48.92,16.32c-1.12,2.67-2.19,5.35-3.38,8C40.71,35,33.37,43.2,21.76,46.64s-17.16,8.49-10,23C17.31,80.78,16.58,92,10.91,103c-1.18,2.28-2.33,4.58-3.5,6.87-3.61,7.06-1.49,12.53,6,15.25,4.53,1.64,9.15,3,13.66,4.73,8,3,13.54,8.41,15.7,16.92.51,2,1.18,4,1.74,6,3.79,13.45,7.18,18,21.61,9.47,11.79-7,23.37-7,34.91.6,2.4,1.58,5.1,2.73,7.61,4.16a8.12,8.12,0,0,0,4.59,1.19c4,0,6.53-1.62,8.27-6.08,2.61-6.73,5-13.55,7.46-20.34a15.33,15.33,0,0,1,11.32-10.12c6.06-1.57,12.12-3.21,18-5.2s7.49-6.17,5-11.71C161.36,110.33,159.41,105.9,157,101.72Zm-3.35-36.42c2-1.41,2.62.17,2.36,1.87-.61,3.95-1.3,7.92-3.53,11.36-.86,1.34-1.85,2.93-3.73,2.42s-2.31-2.43-2.48-4.55A18.77,18.77,0,0,1,153.69,65.29Zm-32-40.93c2.32,4.51,4.54,9,5.12,14a2,2,0,0,1-2.27,2.45,4.58,4.58,0,0,1-4.41-3.8A19.86,19.86,0,0,1,121.65,24.36Zm-7.25-3.14c2.13.82,1.77,2.75,1.62,4.5-.07.79-.16,1.58-.24,2.37a7,7,0,0,1,0,1c-.34,2.56.92,6-2.29,7.16s-6.07-1.32-8.89-2.58c-2.1-.94-1.52-2.91-.18-4.39q2.87-3.2,5.88-6.26C111.4,21.84,112.62,20.54,114.41,21.23ZM94.7,23.8c4.23-1,7.53-4.58,13.23-4.72-3,3.26-5.21,5.86-7.63,8.27a5.34,5.34,0,0,1-5,1.13c-1.3-.24-2.58-.8-2.91-2.16C92,24.61,93.53,24.07,94.7,23.8ZM58.43,56.5c.06-1.44.15-2.89.28-5.18-.44-6.51.85-13.82.12-21.24-.88-9,6-13.42,13.68-8.42,14.11,9.19,30,14.32,45.16,21.17,7.11,3.22,14.84,5.08,22.29,7.57,1.07.36,2.13.72,3.17,1.15,2,.83,3.88,1.94,3.73,4.45s-2.22,3.45-4.25,4a59.54,59.54,0,0,1-8,1.54c-20.7,2.54-41.16,6.89-62,8.58C60.5,71.11,57.94,68.5,58.43,56.5Zm77.51,23.91c-4,6.23-9.69,10.77-16,14.28-6.14,3.39-12.45,1.95-18.55-.8-7.91-3.56-15.88-7-23.78-10.54-2.3-1-5.25-2-5-5.14s3.26-4.24,5.92-4.79a319.83,319.83,0,0,1,36.7-5.34c4.48-.41,9-.71,14.17-1.12,2.65.18,6.4.08,8.24,3.49S137.92,77.35,135.94,80.41ZM51.18,24.73c1.58-1.45,2.69-.25,3,1.39.44,2,.63,4.09.93,6.15a12,12,0,0,1-3.21,8.8,4.54,4.54,0,0,1-5.19,1.43,4.17,4.17,0,0,1-2.66-4.19C44,32.54,47.22,28.37,51.18,24.73Zm-37,77.55c.23-3.38,2.62-6.39,6-8.5,2.86-1.8,5.88.39,5.7,3.83-.21,3.83-4,8.15-7.76,8.83C15.4,106.91,14.05,105.87,14.16,102.28Zm34.89,46.8c-2.26.36-2.29-2.22-3.06-3.67a8.08,8.08,0,0,1-.75-2.27c-.36-2-2.65-4.71.78-5.54,2.61-.63,4.19,1.79,4.84,4.32a16.88,16.88,0,0,1,.27,2.42C50.63,146,51.59,148.67,49.06,149.08ZM51,129.46c-.56,3.41-2.83,4.81-5.91,3.62-7.45-2.87-15.31-4.64-22.44-8.36-1.54-.8-3.55-1.31-3.08-3.62.38-1.88,2.14-2,3.74-2.42a156.37,156.37,0,0,1,18-2.89c8.31-.95,10,.49,10,10.13A26.38,26.38,0,0,1,51,129.46Zm1-33.3c-.06,10.89-2.85,14.2-13.58,16.29a54,54,0,0,1-12.94,1c-3.4-.16-4.38-1.52-2.27-4.56A71.79,71.79,0,0,1,43.46,89.24c5.68-3.65,8.21-2.2,8.48,4.51C52,94.55,51.94,95.35,51.94,96.16Zm.22-27.58c-1.87,9.11-8.1,15.9-15.78,21-5.57,3.72-9.26,2.85-12.89-2.83-3.83-6-6.13-12.66-8-19.49-.38-1.39-.65-2.81-1.1-4.18-1.94-5.9-.48-8.94,5.59-10.05,5.65-1,11.32-2.28,18-2.12.13,0,1.09.12,2.05.14C53.73,51.41,54.76,55.93,52.17,68.58Zm29,81.11a8.21,8.21,0,0,1-4.2,3.78l-9.9,4.37c-3-.5-3-2.19-1.68-3.83,3.25-4.16,7.84-6.54,12.53-8.67a2.59,2.59,0,0,1,3.08.76A3,3,0,0,1,81.21,149.69Zm.67-15.5c-6,5.78-12.12,11.46-18.24,17.12-1.94,1.8-3.73,4.69-6.85,3.52-3.37-1.26-2.64-4.74-2.93-7.42,1.18-11.31.38-22.57,1.45-33.78.74-7.78-.36-15.71.22-23.58.61-8.2,4.29-10.53,11.83-7.2C77.22,87.2,87.1,91.47,96.88,96c8.92,4.1,10.18,8.8,4.67,17.1C96.17,121.18,88.82,127.51,81.88,134.19Zm22.34,26.18c-3-1.44-6.18-2.71-9.07-4.42-4-2.35-4-4.77-.22-7.26C99,146,103.79,145,108.47,144c2.47-.54,4,.87,4.27,3.37s.41,4.78.66,7.91C113.52,162.19,111.21,163.68,104.22,160.38Zm20.65-16.91a14.2,14.2,0,0,1-1,3.71c-1,2.23-1.18,6.09-4.16,5.64-3.23-.49-2.84-4.51-3.62-6.86.07-3.17,1.28-5.24,4-6.3C123.55,138.31,125.41,139.76,124.87,143.46Zm12.52-15.64a19.5,19.5,0,0,1-7.33,4.54c-10.5,3.48-20.38,8.71-31.24,11.13-2.5.56-5,.94-7,1.29-3-.34-5.66-.28-6.91-2.82s.51-4.35,1.84-6.1c5.3-7,11.52-13.39,19.54-16.82,10.25-4.39,20.77-3.12,30.52,2.5C139.72,123.21,139.8,125.49,137.39,127.82Zm12.44-11.87c-1.16,2.27-3.49,1.84-6.9,2-7.2-1.26-15.75-2.51-24.18-4.35-5-1.09-5.71-4-2.6-8,10.19-13,14.06-13.29,25.38-1.7,2.13,2.17,4.27,4.33,6.32,6.58C149.24,112,151,113.6,149.83,115.95Zm4.46-6.21c-1.6,1-2.5-.87-3.45-1.86-4.12-4.26-8.2-8.57-12.33-12.83-1.49-1.54-2.78-3.13-2.6-6.14.67-2.55,2.05-5.71,5.37-6.6s4.16,2.3,5.18,4.59q4.1,9.21,8,18.5C155,106.82,156.06,108.68,154.28,109.74Z"/></svg>