<?xml version="1.0" encoding="UTF-8" standalone="no"?>
<svg
   xmlns:dc="http://purl.org/dc/elements/1.1/"
   xmlns:cc="http://creativecommons.org/ns#"
   xmlns:rdf="http://www.w3.org/1999/02/22-rdf-syntax-ns#"
   xmlns:svg="http://www.w3.org/2000/svg"
   xmlns="http://www.w3.org/2000/svg"
   xmlns:sodipodi="http://sodipodi.sourceforge.net/DTD/sodipodi-0.dtd"
   xmlns:inkscape="http://www.inkscape.org/namespaces/inkscape"
   id="Calque_1"
   data-name="Calque 1"
   viewBox="0 0 563.58 168.08"
   version="1.1"
   sodipodi:docname="logo blanc.svg"
   width="563.58002"
   height="168.08"
   inkscape:version="1.0.2 (e86c870879, 2021-01-15, custom)">
  <metadata
     id="metadata26">
    <rdf:RDF>
      <cc:Work
         rdf:about="">
        <dc:format>image/svg+xml</dc:format>
        <dc:type
           rdf:resource="http://purl.org/dc/dcmitype/StillImage" />
        <dc:title>logo blanc</dc:title>
      </cc:Work>
    </rdf:RDF>
  </metadata>
  <sodipodi:namedview
     pagecolor="#ffffff"
     bordercolor="#666666"
     borderopacity="1"
     objecttolerance="10"
     gridtolerance="10"
     guidetolerance="10"
     inkscape:pageopacity="0"
     inkscape:pageshadow="2"
     inkscape:window-width="1920"
     inkscape:window-height="1017"
     id="namedview24"
     showgrid="false"
     inkscape:zoom="2.1656141"
     inkscape:cx="280.29001"
     inkscape:cy="84.040001"
     inkscape:window-x="-8"
     inkscape:window-y="-8"
     inkscape:window-maximized="1"
     inkscape:current-layer="text21" />
  <defs
     id="defs11">
    <style
       id="style2">.cls-1{fill:url(#linear-gradient);}.cls-2{font-size:83.56px;fill:#fff;font-family:GoodTimesRg-Regular, Good Times;letter-spacing:0.07em;}.cls-3{letter-spacing:-0.07em;}</style>
    <linearGradient
       id="linear-gradient"
       x1="2"
       y1="85.110001"
       x2="161.03"
       y2="85.110001"
       gradientUnits="userSpaceOnUse">
      <stop
         offset="0"
         stop-color="#66b331"
         id="stop4" />
      <stop
         offset="0"
         stop-color="#41bfef"
         id="stop6" />
      <stop
         offset="1"
         stop-color="#273c8c"
         id="stop8" />
    </linearGradient>
  </defs>
  <title
     id="title13">logo blanc</title>
  <path
     class="cls-1"
     d="m 153.35,97.78 c -4.55,-8.05 -4,-16 0,-23.93 2.1,-4.16 4.38,-8.22 6.43,-12.4 2.78,-5.7 0.9,-10.4 -5.11,-12.69 -3.9,-1.49 -7.84,-2.93 -11.86,-4 -8.9,-2.42 -14.11,-8.47 -17,-16.83 -1.75,-5 -3.16,-10.12 -5.07,-15.06 C 118.44,7 114,5.16 108.32,7.69 102.46,10.31 96.72,13.19 91,16 84.76,19.07 78.74,19.12 72.67,15.4 68.16,12.64 63.45,10.18 58.79,7.66 52.55,4.28 47.96,5.9 45.26,12.35 c -1.12,2.67 -2.19,5.35 -3.38,8 C 37,31.1 29.68,39.26 18.07,42.7 c -11.61,3.44 -17.16,8.49 -10,23 5.53,11.15 4.8,22.37 -0.88,33.35 -1.18,2.28 -2.33,4.58 -3.5,6.87 -3.61,7.06 -1.49,12.53 6,15.25 4.53,1.64 9.15,3 13.66,4.73 8,3 13.54,8.41 15.7,16.92 0.51,2 1.18,4 1.74,6 3.79,13.45 7.18,18 21.61,9.47 11.79,-7 23.37,-7 34.91,0.6 2.4,1.58 5.1,2.73 7.61,4.16 a 8.12,8.12 0 0 0 4.59,1.19 c 4,0 6.53,-1.62 8.27,-6.08 2.61,-6.73 5,-13.55 7.46,-20.34 a 15.33,15.33 0 0 1 11.32,-10.12 c 6.06,-1.57 12.12,-3.21 18,-5.2 5.88,-1.99 7.49,-6.17 5,-11.71 -1.89,-4.4 -3.84,-8.79 -6.21,-13.01 z M 150,61.35 c 2,-1.41 2.62,0.17 2.36,1.87 -0.61,3.95 -1.3,7.92 -3.53,11.36 -0.83,1.34 -1.83,2.94 -3.74,2.42 -1.91,-0.52 -2.31,-2.43 -2.48,-4.55 A 18.77,18.77 0 0 1 150,61.35 Z M 118,20.42 c 2.32,4.51 4.54,9 5.12,14 a 2,2 0 0 1 -2.27,2.45 4.58,4.58 0 0 1 -4.41,-3.8 19.86,19.86 0 0 1 1.56,-12.65 z m -7.25,-3.14 c 2.13,0.82 1.77,2.75 1.62,4.5 -0.07,0.79 -0.16,1.58 -0.24,2.37 a 7,7 0 0 1 0,1 c -0.34,2.56 0.92,6 -2.29,7.16 -3.21,1.16 -6.07,-1.32 -8.89,-2.58 -2.1,-0.94 -1.52,-2.91 -0.18,-4.39 q 2.87,-3.2 5.88,-6.26 c 1.06,-1.18 2.28,-2.48 4.07,-1.79 z M 91,19.86 c 4.23,-1 7.53,-4.58 13.23,-4.72 -3,3.26 -5.21,5.86 -7.63,8.27 a 5.34,5.34 0 0 1 -5,1.13 C 90.3,24.3 89.02,23.74 88.69,22.38 88.34,20.67 89.84,20.13 91,19.86 Z m -36.26,32.7 c 0.06,-1.44 0.15,-2.89 0.28,-5.18 -0.44,-6.51 0.85,-13.82 0.12,-21.24 -0.88,-9 6,-13.42 13.68,-8.42 C 82.94,26.9 98.85,32 114,38.89 c 7.11,3.22 14.84,5.08 22.29,7.57 1.07,0.36 2.13,0.72 3.17,1.15 2,0.83 3.88,1.94 3.73,4.45 -0.15,2.51 -2.22,3.45 -4.25,4 a 59.54,59.54 0 0 1 -8,1.54 c -20.7,2.54 -41.16,6.89 -62,8.58 -12.13,0.99 -14.69,-1.62 -14.2,-13.62 z m 77.51,23.91 c -4,6.23 -9.69,10.77 -16,14.28 -6.14,3.39 -12.45,1.95 -18.55,-0.8 -7.91,-3.56 -15.88,-7 -23.78,-10.54 -2.3,-1 -5.25,-2 -5,-5.14 0.25,-3.14 3.26,-4.24 5.92,-4.79 a 319.83,319.83 0 0 1 36.7,-5.34 c 4.48,-0.41 9,-0.71 14.17,-1.12 2.65,0.18 6.4,0.08 8.24,3.49 1.84,3.41 0.28,6.9 -1.7,9.96 z M 47.49,20.79 c 1.58,-1.45 2.69,-0.25 3,1.39 0.44,2 0.63,4.09 0.93,6.15 a 12,12 0 0 1 -3.21,8.8 4.54,4.54 0 0 1 -5.19,1.43 4.17,4.17 0 0 1 -2.66,-4.19 c -0.02,-5.77 3.17,-9.94 7.13,-13.58 z m -37,77.55 c 0.23,-3.38 2.62,-6.39 6,-8.5 2.86,-1.8 5.88,0.39 5.7,3.83 -0.21,3.83 -4,8.15 -7.76,8.83 -2.72,0.5 -4.07,-0.57 -3.96,-4.16 z m 34.89,46.8 c -2.26,0.36 -2.29,-2.22 -3.06,-3.67 a 8.08,8.08 0 0 1 -0.75,-2.27 c -0.36,-2 -2.65,-4.71 0.78,-5.54 2.61,-0.63 4.19,1.79 4.84,4.32 a 16.88,16.88 0 0 1 0.27,2.42 c -0.52,1.68 0.44,4.33 -2.09,4.74 z m 1.93,-19.62 c -0.56,3.41 -2.83,4.81 -5.91,3.62 -7.45,-2.87 -15.31,-4.64 -22.44,-8.36 -1.54,-0.8 -3.55,-1.31 -3.08,-3.62 0.38,-1.88 2.14,-2 3.74,-2.42 a 156.37,156.37 0 0 1 18,-2.89 c 8.31,-0.95 10,0.49 10,10.13 a 26.38,26.38 0 0 1 -0.32,3.54 z m 1,-33.3 c -0.06,10.89 -2.85,14.2 -13.58,16.29 a 54,54 0 0 1 -12.94,1 c -3.4,-0.16 -4.38,-1.52 -2.27,-4.56 A 71.79,71.79 0 0 1 39.77,85.3 c 5.68,-3.65 8.21,-2.2 8.48,4.51 0.03,0.8 0,1.6 0,2.41 z m 0.22,-27.58 c -1.87,9.11 -8.1,15.9 -15.78,21 -5.57,3.72 -9.26,2.85 -12.89,-2.83 -3.83,-6 -6.13,-12.66 -8,-19.49 -0.38,-1.39 -0.65,-2.81 -1.1,-4.18 -1.94,-5.9 -0.48,-8.94 5.59,-10.05 5.65,-1 11.32,-2.28 18,-2.12 0.13,0 1.09,0.12 2.05,0.14 C 50,47.47 51.07,52 48.47,64.64 Z m 29,81.11 a 8.21,8.21 0 0 1 -4.2,3.78 l -9.9,4.37 c -3,-0.5 -3,-2.19 -1.68,-3.83 3.25,-4.16 7.84,-6.54 12.53,-8.67 a 2.59,2.59 0 0 1 3.08,0.76 3,3 0 0 1 0.16,3.59 z m 0.67,-15.5 c -6,5.78 -12.12,11.46 -18.24,17.12 -1.94,1.8 -3.73,4.69 -6.85,3.52 -3.37,-1.26 -2.64,-4.74 -2.93,-7.42 1.18,-11.31 0.38,-22.57 1.45,-33.78 0.74,-7.78 -0.36,-15.71 0.22,-23.58 0.61,-8.2 4.29,-10.53 11.83,-7.2 9.84,4.35 19.73,8.62 29.5,13.12 8.92,4.1 10.18,8.8 4.67,17.1 -5.37,8.11 -12.72,14.44 -19.66,21.12 z m 22.34,26.18 c -3,-1.44 -6.18,-2.71 -9.07,-4.42 -4,-2.35 -4,-4.77 -0.22,-7.26 4.09,-2.7 8.85,-3.71 13.54,-4.75 2.47,-0.54 4,0.87 4.27,3.37 0.27,2.5 0.41,4.78 0.66,7.91 0.11,6.97 -2.2,8.46 -9.19,5.16 z m 20.65,-16.91 a 14.2,14.2 0 0 1 -1,3.71 c -1,2.23 -1.18,6.09 -4.16,5.64 -3.23,-0.49 -2.84,-4.51 -3.62,-6.86 0.07,-3.17 1.28,-5.24 4,-6.3 3.45,-1.34 5.31,0.11 4.77,3.81 z m 12.52,-15.64 a 19.5,19.5 0 0 1 -7.33,4.54 c -10.5,3.48 -20.38,8.71 -31.24,11.13 -2.5,0.56 -5,0.94 -7,1.29 -3,-0.34 -5.66,-0.28 -6.91,-2.82 -1.25,-2.54 0.51,-4.35 1.84,-6.1 5.3,-7 11.52,-13.39 19.54,-16.82 10.25,-4.39 20.77,-3.12 30.52,2.5 2.87,1.67 2.98,3.95 0.57,6.28 z M 146.14,112 c -1.16,2.27 -3.49,1.84 -6.9,2 -7.2,-1.26 -15.75,-2.51 -24.18,-4.35 -5,-1.09 -5.71,-4 -2.6,-8 10.19,-13 14.06,-13.29 25.38,-1.7 2.13,2.17 4.27,4.33 6.32,6.58 1.39,1.56 3.18,3.13 1.98,5.47 z m 4.46,-6.21 c -1.6,1 -2.5,-0.87 -3.45,-1.86 -4.12,-4.26 -8.2,-8.57 -12.33,-12.83 -1.49,-1.52 -2.82,-3.1 -2.61,-6.1 0.67,-2.55 2.05,-5.71 5.37,-6.6 3.32,-0.89 4.16,2.3 5.18,4.59 q 4.1,9.21 8,18.5 c 0.6,1.39 1.61,3.25 -0.17,4.31 z"
     id="path15" />
  <g
     aria-label="STARK"
     transform="translate(185.92,116.85)"
     id="text21"
     style="font-size:83.56px;font-family:GoodTimesRg-Regular, 'Good Times';letter-spacing:0.07em;fill:#ffffff"
     class="cls-2">
    <path
       d="M 5.2642798,0 V -10.61212 H 50.804479 q 4.261559,0 6.517679,-2.17256 2.33968,-2.17256 2.33968,-5.765639 0,-3.92732 -2.33968,-5.8492 -2.25612,-2.00544 -6.517679,-2.00544 h -27.90904 q -4.26156,0 -7.771079,-1.2534 -3.42596,-1.33696 -5.8492003,-3.59308 -2.3396799,-2.33968 -3.6766399,-5.51496 -1.2533999,-3.17528 -1.2533999,-6.93548 0,-3.67664 1.1698399,-6.76836 1.2534,-3.175279 3.5930799,-5.431399 2.4232403,-2.25612 5.9327603,-3.50952 3.509519,-1.33696 8.021759,-1.33696 h 43.618319 v 10.612119 H 23.062559 q -3.67664,0 -5.68208,2.00544 -2.005439,1.92188 -2.005439,5.4314 0,3.50952 2.005439,5.4314 2.089,1.92188 5.59852,1.92188 h 27.82548 q 9.275159,0 14.038079,4.34512 4.84648,4.34512 4.84648,13.20248 0,3.843759 -1.16984,7.102599 -1.16984,3.2588402 -3.50952,5.6820801 -2.33968,2.33968 -5.93276,3.6766399 Q 55.567398,0 50.804479,0 Z"
       style="fill:#ffffff"
       id="path41" />
    <path
       d="M 104.11569,0 V -50.135999 H 81.053127 v -10.612119 h 56.737243 v 10.612119 H 114.72781 V 0 Z"
       style="fill:#ffffff"
       id="path43" />
    <path
       d="m 202.54923,0 -9.10804,-15.29148 h -28.74464 l 5.0136,-8.606679 h 18.63388 L 174.80731,-46.626479 147.23251,0 h -12.1162 l 34.92808,-58.157758 q 0.91916,-1.58764 2.17256,-2.5068 1.2534,-0.91916 3.00816,-0.91916 1.75476,0 2.9246,0.91916 1.2534,0.91916 2.17256,2.5068 L 215.33391,0 Z"
       style="fill:#ffffff"
       id="path45" />
    <path
       d="m 284.10365,0 -15.37504,-16.87912 h -22.72832 v -9.358719 h 25.31868 q 5.76564,0 8.69024,-3.09172 2.9246,-3.17528 2.9246,-9.10804 0,-5.93276 -3.09172,-8.7738 -3.00816,-2.9246 -8.52312,-2.9246 H 238.22921 V 0 h -10.52856 v -60.748118 h 43.61832 q 5.18072,0 9.27516,1.58764 4.09444,1.50408 6.93548,4.42868 2.84104,2.84104 4.34512,6.935479 1.50408,4.09444 1.50408,9.1916 0,7.60396 -3.3424,12.78468 -3.25884,5.09716 -9.1916,7.35328 L 299.14445,0 Z"
       style="fill:#ffffff"
       id="path47" />
    <path
       d="m 360.56101,0 -34.00892,-26.739199 q -1.42052,-1.08628 -1.83832,-2.089 -0.33424,-1.08628 -0.33424,-2.33968 0,-1.42052 0.50136,-2.5068 0.50136,-1.08628 2.17256,-2.33968 l 32.1706,-24.733759 h 16.2942 L 335.74369,-31.084319 376.77165,0 Z m -50.05244,0 v -60.748118 h 10.61212 V 0 Z"
       style="fill:#ffffff"
       id="path49" />
  </g>
</svg>
